<svg width="483" height="374" viewBox="0 0 483 374" fill="none" xmlns="http://www.w3.org/2000/svg" style="rotate: 180deg;">
<g clip-path="url(#clip0_132_949)">
<mask id="mask0_132_949" style="mask-type:luminance" maskUnits="userSpaceOnUse" x="-758" y="-1942" width="1305" height="2317">
<path d="M-757.308 374.176H546.126V-1941.95H-757.308V374.176Z" fill="white"/>
</mask>
<g mask="url(#mask0_132_949)">
<mask id="mask1_132_949" style="mask-type:luminance" maskUnits="userSpaceOnUse" x="-525" y="-484" width="1946" height="1898">
<path d="M-524.231 -483.898H1420.69V1413.07H-524.231V-483.898Z" fill="white"/>
</mask>
<g mask="url(#mask1_132_949)">
<g opacity="0.300003">
<path d="M628.475 425.714H677.878L678.128 425.465L730.792 372.876H773.854V371.167H730.083L729.832 371.416L677.168 424.004H629.184L607.187 402.04V335.15L606.936 334.898L567.566 295.588V245.732L567.316 245.48L507.016 185.27H299.59V186.981H506.307L565.854 246.439V296.296L566.105 296.547L605.475 335.857V402.749L628.475 425.714Z" fill="#00AB67"/>
<path d="M762.707 303.266H764.42V259.107L764.169 258.855L705.344 200.117H668.095L646.483 221.698H602.746L527.494 146.558V88.8874L493.833 55.2748H451.755V56.985H493.124L525.781 89.5955V147.266L526.032 147.518L602.037 223.408H647.192L668.804 201.828H704.635L762.707 259.815V303.266Z" fill="#00AB67"/>
<path d="M444.879 62.9969C448.92 67.0323 455.471 67.0323 459.513 62.9969C463.554 58.9615 463.554 52.4197 459.513 48.3843C455.471 44.3489 448.92 44.3489 444.879 48.3843C440.837 52.4197 440.837 58.9615 444.879 62.9969Z" fill="#00AB67"/>
<path d="M291.761 193.941C295.803 197.977 302.354 197.977 306.395 193.941C310.437 189.906 310.437 183.364 306.395 179.329C302.354 175.293 295.803 175.293 291.761 179.329C287.72 183.364 287.72 189.906 291.761 193.941Z" fill="#00AB67"/>
<path d="M-54.4085 693.866L12.4878 627.067H45.0561L45.307 626.817L87.4219 584.765V478.468L87.171 478.217L50.492 441.594H7.31122L-22.5143 411.811V384.31L14.916 346.935V289.594H13.2033V346.227L-24.227 383.602V412.519L6.60204 443.304H49.7828L85.7092 479.176V584.057L44.3469 625.357H11.7786L11.5278 625.606L-55.6194 692.655L-54.4085 693.866Z" fill="#00AB67"/>
<path d="M417.182 703.138H418.895V655.835L477.061 597.754V543.598L451.829 518.402H378.191L334.637 474.915H279.752L214.244 409.503V358.741H212.531V410.211L212.782 410.462L279.043 476.625H333.929L377.482 520.112H451.119L475.349 544.307V597.046L417.182 655.127V703.138Z" fill="#00AB67"/>
<path d="M300.776 670.305H349.355V668.595H301.485L237.6 604.803V565.404L261.357 541.682V492.188L261.106 491.936L177.584 408.539H114.095L78.1451 372.642L77.4444 324.4H75.7317L76.4325 373.351L76.6833 373.602L113.385 410.249H176.875L259.644 492.896V540.974L235.888 564.696V605.511L236.139 605.763L300.776 670.305Z" fill="#00AB67"/>
<path d="M578.403 673.066L621.361 630.172V582.164L621.11 581.912L539.745 500.67V405.79L514.238 380.32H455.775L433.967 358.545V251.127L404.962 222.165H349.375L349.124 222.415L302.948 268.522H249.322L187.184 206.476L185.973 207.687L248.613 270.232H303.657L303.908 269.982L350.084 223.875H404.253L432.255 251.835V359.253L455.066 382.03H513.529L538.033 406.498V501.378L538.284 501.629L619.648 582.872V629.464L577.192 671.855L578.403 673.066Z" fill="#00AB67"/>
<path d="M400.779 343.805H402.492V289.101L381.518 268.16H352.738L352.487 268.409L318.563 302.284H218.346L188.412 332.174H163.707L117.671 286.204L116.46 287.416L162.997 333.884H189.121L219.055 303.994H319.272L319.523 303.745L353.447 269.869H380.809L400.779 289.81V343.805Z" fill="#00AB67"/>
<path d="M458.022 261.518H459.734V225.409L440.034 205.739L438.823 206.95L458.022 226.117V261.518Z" fill="#00AB67"/>
<path d="M22.1026 281.562C26.5448 285.998 26.5448 293.19 22.1026 297.625C17.6604 302.061 10.4579 302.061 6.01572 297.625C1.57354 293.19 1.57354 285.998 6.01572 281.562C10.4579 277.127 17.6604 277.127 22.1026 281.562Z" fill="#00AB67"/>
<path d="M83.5358 317.462C87.641 321.561 87.641 328.207 83.5358 332.306C79.4307 336.405 72.7755 336.405 68.6704 332.306C64.5653 328.207 64.5653 321.561 68.6704 317.462C72.7755 313.363 79.4307 313.363 83.5358 317.462Z" fill="#00AB67"/>
<path d="M221.994 350.146C226.436 354.582 226.436 361.774 221.994 366.209C217.552 370.645 210.35 370.645 205.907 366.209C201.465 361.774 201.465 354.582 205.907 350.146C210.35 345.711 217.552 345.711 221.994 350.146Z" fill="#00AB67"/>
<path d="M434.359 211.408C437.16 214.204 441.7 214.204 444.501 211.408C447.301 208.612 447.301 204.078 444.501 201.281C441.7 198.485 437.16 198.485 434.359 201.281C431.559 204.078 431.559 208.612 434.359 211.408Z" fill="#00AB67"/>
<path d="M453.589 262.864C456.389 265.66 460.93 265.66 463.731 262.864C466.531 260.068 466.531 255.534 463.731 252.737C460.93 249.941 456.389 249.941 453.589 252.737C450.789 255.534 450.789 260.068 453.589 262.864Z" fill="#00AB67"/>
<path d="M396.801 348.633C399.601 351.43 404.141 351.43 406.942 348.633C409.742 345.837 409.742 341.304 406.942 338.507C404.141 335.711 399.601 335.711 396.801 338.507C394 341.304 394 345.837 396.801 348.633Z" fill="#00AB67"/>
<path d="M182.215 211.94C185.149 214.595 189.684 214.372 192.343 211.441C195.003 208.512 194.779 203.983 191.845 201.327C188.91 198.672 184.375 198.895 181.716 201.826C179.057 204.756 179.28 209.284 182.215 211.94Z" fill="#00AB67"/>
<path d="M107.084 286.958C110.019 289.614 114.553 289.39 117.213 286.46C119.872 283.53 119.649 279.001 116.714 276.346C113.78 273.69 109.244 273.914 106.585 276.844C103.926 279.775 104.149 284.303 107.084 286.958Z" fill="#00AB67"/>
</g>
</g>
</g>
<path d="M525.884 20.6602H479.035V21.7588H526.34L546.126 2.00173V0.448315L525.884 20.6602Z" fill="#00AB67"/>
<path d="M538.142 37.2658V52.2828L499.863 90.5059H460.487V91.6045H500.319L539.242 52.7376V37.7213L546.127 30.8464V29.293L538.142 37.2658Z" fill="#00AB67"/>
<path d="M507.645 100.399V119.405L483.5 143.513H422.158L401.191 122.577V97.3784L383.144 79.3588H366.179L344.304 101.202H299.101V102.3H344.76L366.635 80.4574H382.689L400.09 97.8326V123.032L421.701 144.611H483.956L484.117 144.451L508.746 119.86V100.854L546.126 63.5287V61.9753L507.645 100.399Z" fill="#00AB67"/>
<path d="M381.577 347.024V348.122H413.665L433.006 367.435V374.176H434.106V366.98L414.121 347.024H381.577Z" fill="#00AB67"/>
<path d="M255.5 254.325V255.424H388.301L426.554 293.622V325.651L426.716 325.812L452.009 351.066V374.174H453.108V350.611L452.948 350.449L427.655 325.196V293.167L427.493 293.005L388.756 254.325H255.5ZM532.06 373.749L531.899 373.909L531.634 374.174H546.126V373.749H532.06Z" fill="#00AB67"/>
<path d="M353.255 170.814V171.912H379.831L400.811 192.862V229.911L400.972 230.073L449.799 278.827H478.808L492.692 264.962H515.711L546.126 295.333V293.779L516.167 263.864H492.237L478.353 277.728H450.255L401.911 229.456V192.407L380.287 170.814H353.255Z" fill="#00AB67"/>
<path d="M445.912 315.602L464.081 333.742V374.176H465.181V333.287L446.69 314.824L445.912 315.602ZM508.679 374.176H510.235L521.188 363.24L520.411 362.461L508.679 374.176Z" fill="#00AB67"/>
<g clip-path="url(#clip1_132_949)">
<mask id="mask2_132_949" style="mask-type:luminance" maskUnits="userSpaceOnUse" x="-758" y="-1942" width="1305" height="2317">
<path d="M-757.308 374.176H546.126V-1941.95H-757.308V374.176Z" fill="white"/>
</mask>
<g mask="url(#mask2_132_949)">
<path d="M294.4 106.446C296.997 109.039 301.205 109.039 303.802 106.446C306.397 103.854 306.397 99.6511 303.802 97.0586C301.205 94.4667 296.997 94.4667 294.4 97.0586C291.804 99.6511 291.804 103.854 294.4 106.446Z" fill="#00AB67"/>
<path d="M348.838 175.775C351.434 178.368 355.643 178.368 358.239 175.775C360.835 173.183 360.835 168.98 358.239 166.388C355.643 163.796 351.434 163.796 348.838 166.388C346.241 168.98 346.241 173.183 348.838 175.775Z" fill="#00AB67"/>
<path d="M458.105 93.3738C459.403 94.6697 461.508 94.6697 462.806 93.3738C464.104 92.0779 464.104 89.9765 462.806 88.6799C461.508 87.384 459.403 87.384 458.105 88.6799C456.808 89.9765 456.808 92.0779 458.105 93.3738Z" fill="#00AB67"/>
<path d="M250.472 259.898C253.068 262.491 257.277 262.491 259.873 259.898C262.469 257.306 262.469 253.103 259.873 250.511C257.277 247.919 253.068 247.919 250.472 250.511C247.875 253.103 247.875 257.306 250.472 259.898Z" fill="#00AB67"/>
<path d="M376.876 352.268C379.473 354.86 383.681 354.86 386.278 352.268C388.873 349.675 388.873 345.472 386.278 342.88C383.681 340.288 379.473 340.288 376.876 342.88C374.28 345.472 374.28 349.675 376.876 352.268Z" fill="#00AB67"/>
<path d="M441.601 319.905C444.197 322.498 448.406 322.498 451.002 319.905C453.598 317.313 453.598 313.11 451.002 310.518C448.406 307.926 444.197 307.926 441.601 310.518C439.004 313.11 439.004 317.313 441.601 319.905Z" fill="#00AB67"/>
<path d="M475.115 25.3083C477.331 27.5209 480.924 27.5209 483.14 25.3083C485.355 23.0958 485.355 19.5082 483.14 17.2957C480.924 15.0831 477.331 15.0831 475.115 17.2957C472.899 19.5082 472.899 23.0958 475.115 25.3083Z" fill="#00AB67"/>
<path d="M482.802 248.585C485.018 250.797 488.611 250.797 490.827 248.585C493.042 246.372 493.042 242.785 490.827 240.572C488.611 238.359 485.018 238.359 482.802 240.572C480.586 242.785 480.586 246.372 482.802 248.585Z" fill="#00AB67"/>
<path d="M0.880883 572.721L43.8564 529.807H64.7793L64.9404 529.647L91.9958 502.631V434.344L91.8346 434.182L68.2712 410.655H40.5312L21.37 391.522V373.855L45.4163 349.844V308.003H44.3161V349.389L20.2705 373.399V391.977L40.0757 411.753H67.8157L90.8956 434.798V502.176L64.3238 528.709H43.4009L43.2397 528.869L0.103027 571.943L0.880883 572.721Z" fill="#00AB67"/>
<path d="M331.045 587.019H332.145V556.63L369.512 519.318V484.527L353.303 468.34H305.996L278.016 440.403H242.757L200.673 398.381V365.77H199.572V398.836L199.734 398.997L242.301 441.501H277.56L305.54 469.438H352.847L368.413 484.982V518.863L331.045 556.176V587.019Z" fill="#00AB67"/>
<path d="M251.76 580.311H282.968V579.212H252.216L211.174 538.23V512.92L226.437 497.68V465.884L226.275 465.722L172.619 412.146H131.832L108.737 389.085V359.891H107.637V389.54L107.798 389.702L131.376 413.244H172.163L225.336 466.339V497.225L210.074 512.466V538.685L210.235 538.847L251.76 580.311Z" fill="#00AB67"/>
<path d="M434.617 567.7L462.214 540.144V509.302L462.052 509.141L409.782 456.949V395.995L393.396 379.633H355.837L341.827 365.644V296.636L323.194 278.031H287.483L287.322 278.191L257.658 307.811H223.207L183.288 267.951L182.511 268.729L222.752 308.91H258.113L258.275 308.749L287.939 279.13H322.738L340.727 297.091V366.099L355.382 380.731H392.94L408.682 396.45V457.404L408.843 457.564L461.113 509.757V539.689L433.839 566.922L434.617 567.7Z" fill="#00AB67"/>
<path d="M320.507 356.175H321.607V321.032L308.133 307.579H289.644L289.483 307.739L267.689 329.501H203.307L184.078 348.703H168.206L138.631 319.171L137.853 319.949L167.75 349.802H184.532L203.763 330.599H268.145L268.306 330.439L290.099 308.677H307.677L320.507 321.487V356.175Z" fill="#00AB67"/>
<path d="M363.134 311.853H364.234V288.656L351.578 276.019L350.801 276.797L363.134 289.11V311.853Z" fill="#00AB67"/>
<path d="M50.0338 302.841C52.8873 305.691 52.8873 310.311 50.0338 313.16C47.1802 316.01 42.5531 316.01 39.6995 313.16C36.8453 310.311 36.8453 305.691 39.6995 302.841C42.5531 299.992 47.1802 299.992 50.0338 302.841Z" fill="#00AB67"/>
<path d="M113.042 355.041C115.896 357.89 115.896 362.51 113.042 365.36C110.189 368.21 105.561 368.21 102.708 365.36C99.8537 362.51 99.8537 357.89 102.708 355.041C105.561 352.191 110.189 352.191 113.042 355.041Z" fill="#00AB67"/>
<path d="M205.651 360.248C208.505 363.097 208.505 367.717 205.651 370.567C202.798 373.417 198.17 373.417 195.317 370.567C192.463 367.717 192.463 363.097 195.317 360.248C198.17 357.398 202.798 357.398 205.651 360.248Z" fill="#00AB67"/>
<path d="M347.932 279.66C349.731 281.456 352.648 281.456 354.447 279.66C356.246 277.863 356.246 274.95 354.447 273.154C352.648 271.358 349.731 271.358 347.932 273.154C346.133 274.95 346.133 277.863 347.932 279.66Z" fill="#00AB67"/>
<path d="M359.835 314.515C361.634 316.311 364.552 316.311 366.35 314.515C368.149 312.719 368.149 309.806 366.35 308.01C364.552 306.213 361.634 306.213 359.835 308.01C358.036 309.806 358.036 312.719 359.835 314.515Z" fill="#00AB67"/>
<path d="M317.951 359.276C319.75 361.072 322.667 361.072 324.466 359.276C326.265 357.48 326.265 354.567 324.466 352.77C322.667 350.974 319.75 350.974 317.951 352.77C316.152 354.567 316.152 357.48 317.951 359.276Z" fill="#00AB67"/>
<path d="M180.096 271.459C181.981 273.165 184.895 273.022 186.603 271.139C188.312 269.256 188.168 266.348 186.283 264.642C184.397 262.936 181.484 263.079 179.775 264.961C178.067 266.844 178.211 269.753 180.096 271.459Z" fill="#00AB67"/>
<path d="M131.83 319.654C133.715 321.36 136.629 321.217 138.337 319.335C140.046 317.452 139.902 314.543 138.016 312.837C136.131 311.131 133.218 311.274 131.51 313.157C129.801 315.04 129.945 317.948 131.83 319.654Z" fill="#00AB67"/>
</g>
</g>
</g>
<defs>
<clipPath id="clip0_132_949">
<rect width="483" height="374" fill="white" transform="matrix(1 0 0 -1 0 374)"/>
</clipPath>
<clipPath id="clip1_132_949">
<rect width="1303.43" height="2316.13" fill="white" transform="matrix(1 0 0 -1 -757.308 374.174)"/>
</clipPath>
</defs>
</svg>
