<?xml version="1.0" encoding="utf-8"?>
<!-- Generator: Adobe Illustrator 27.9.0, SVG Export Plug-In . SVG Version: 6.00 Build 0)  -->
<svg version="1.1" id="Layer_1" xmlns="http://www.w3.org/2000/svg" xmlns:xlink="http://www.w3.org/1999/xlink" x="0px" y="0px"
	 viewBox="0 0 28 28" style="enable-background:new 0 0 28 28;" xml:space="preserve">
<style type="text/css">
	.st0{fill:#989798;}
</style>
<path class="st0" d="M14,0C6.3,0,0,6.3,0,14s6.3,14,14,14s14-6.3,14-14S21.7,0,14,0z M14,27.3c-7.3,0-13.3-6-13.3-13.3
	S6.7,0.7,14,0.7s13.3,6,13.3,13.3S21.3,27.3,14,27.3z"/>
<g>
	<path class="st0" d="M14.8,15.6V24H11v-8.4H7.8v-3.4H11V11c0-4.6,1.9-7,6-7c1.2,0,1.6,0.2,2.2,0.4v3.4c-0.8-0.1-1-0.2-1.8-0.2
		c-0.9,0-1.4,0.3-1.9,0.8c-0.5,0.5-0.7,1.4-0.7,2.7v1.2h4.4L18,15.6H14.8z"/>
</g>
</svg>
