<svg width="24" height="27" viewBox="0 0 24 27" fill="none" xmlns="http://www.w3.org/2000/svg"><path fill-rule="evenodd" clip-rule="evenodd" d="M17.0557 0C21.2096 0 24 2.84459 24 7.07779V19.2277C24 23.4979 21.2955 26.2751 17.1098 26.3016L6.94566 26.3055C2.79174 26.3055 0 23.4609 0 19.2277V7.07779C0 2.80628 2.70454 0.0303881 6.89017 0.00528489L17.0543 0H17.0557ZM17.0557 1.98183L6.89678 1.98712C3.82097 2.00562 1.98183 3.90818 1.98183 7.07779V19.2277C1.98183 22.4185 3.83815 24.3237 6.94434 24.3237L17.1032 24.3197C20.179 24.3012 22.0182 22.396 22.0182 19.2277V7.07779C22.0182 3.88704 20.1632 1.98183 17.0557 1.98183ZM16.8008 17.8018C17.3478 17.8018 17.7917 18.2457 17.7917 18.7927C17.7917 19.3397 17.3478 19.7836 16.8008 19.7836H7.26157C6.71458 19.7836 6.27065 19.3397 6.27065 18.7927C6.27065 18.2457 6.71458 17.8018 7.26157 17.8018H16.8008ZM16.8008 12.2705C17.3478 12.2705 17.7917 12.7144 17.7917 13.2614C17.7917 13.8084 17.3478 14.2523 16.8008 14.2523H7.26157C6.71458 14.2523 6.27065 13.8084 6.27065 13.2614C6.27065 12.7144 6.71458 12.2705 7.26157 12.2705H16.8008ZM10.9011 6.75197C11.4481 6.75197 11.8921 7.1959 11.8921 7.74289C11.8921 8.28988 11.4481 8.73381 10.9011 8.73381H7.26117C6.71419 8.73381 6.27026 8.28988 6.27026 7.74289C6.27026 7.1959 6.71419 6.75197 7.26117 6.75197H10.9011Z" fill="#00AA66"/></svg>