<?xml version="1.0" encoding="utf-8"?>
<!-- Generator: Adobe Illustrator 27.9.0, SVG Export Plug-In . SVG Version: 6.00 Build 0)  -->
<svg version="1.1" id="Layer_1" xmlns="http://www.w3.org/2000/svg" xmlns:xlink="http://www.w3.org/1999/xlink" x="0px" y="0px"
	 viewBox="0 0 28 28" style="enable-background:new 0 0 28 28;" xml:space="preserve">
<style type="text/css">
	.st0{fill:#989798;}
</style>
<g>
	<path class="st0" d="M9.9,11c0-1.1,0.1-2.2,0.9-3.1c1.1-1.2,3-1.7,4.7-1.1c1.6,0.6,2.5,1.9,2.5,3.6c0,0.5,0,1.1,0,1.6
		c0,0.4,0.1,0.5,0.5,0.3c0.2-0.1,0.4-0.2,0.7-0.2c0.3-0.1,0.7-0.1,0.9,0.3c0.2,0.4-0.1,0.6-0.3,0.8c-0.3,0.2-0.6,0.5-1,0.7
		c-0.6,0.3-0.6,0.8-0.4,1.4c0.5,1.2,1.5,2,2.6,2.7c0.2,0.1,0.5,0.1,0.5,0.4c0,0.3-0.3,0.3-0.5,0.4c-0.3,0.1-0.6,0.2-0.9,0.3
		c-0.3,0.1-0.6,0.2-0.6,0.6c0,0.3-0.3,0.5-0.6,0.4c-1.1,0-2.1,0.4-3.1,0.9c-1.2,0.7-2.5,0.7-3.7-0.1c-0.9-0.5-1.8-0.9-2.8-0.8
		c-0.4,0-0.7-0.1-0.7-0.5C8.4,19,8,19,7.7,18.9c-0.4-0.1-1.1-0.2-1.1-0.6c-0.1-0.4,0.6-0.5,0.9-0.7c0.9-0.6,1.7-1.4,2.1-2.4
		c0.3-0.7,0.3-0.9-0.4-1.4c-0.3-0.2-0.7-0.4-1-0.7c-0.2-0.2-0.5-0.5-0.3-0.8c0.2-0.3,0.5-0.3,0.8-0.3c0.4,0.1,0.9,0.6,1.2,0.2
		C10.1,12,9.9,11.5,9.9,11z"/>
</g>
<path class="st0" d="M14,0C6.3,0,0,6.3,0,14s6.3,14,14,14s14-6.3,14-14S21.7,0,14,0z M14,27.3c-7.3,0-13.3-6-13.3-13.3
	S6.7,0.7,14,0.7s13.3,6,13.3,13.3S21.3,27.3,14,27.3z"/>
</svg>
