<?xml version="1.0" encoding="utf-8"?>
<!-- Generator: Adobe Illustrator 27.9.0, SVG Export Plug-In . SVG Version: 6.00 Build 0)  -->
<svg version="1.1" id="Layer_1" xmlns="http://www.w3.org/2000/svg" xmlns:xlink="http://www.w3.org/1999/xlink" x="0px" y="0px"
	 viewBox="0 0 28 28" style="enable-background:new 0 0 28 28;" xml:space="preserve">
<style type="text/css">
	.st0{fill:#989898;}
</style>
<path class="st0" d="M14,0C6.3,0,0,6.3,0,14c0,7.7,6.3,14,14,14c7.7,0,14-6.3,14-14C28,6.3,21.7,0,14,0z M14,27.3
	C6.7,27.3,0.7,21.3,0.7,14S6.7,0.7,14,0.7S27.3,6.7,27.3,14S21.3,27.3,14,27.3z"/>
<path class="st0" d="M22.5,21.3c-0.5-0.7-0.9-1.4-1.4-2l0,0c-0.8-1.1-1.7-2.2-2.5-3.4c-0.8-1-1.5-2.1-2.3-3.1c0.9-1,1.8-1.9,2.7-2.9
	c1-1.1,2-2.1,3-3.2L22.7,6h-2.8l-0.1,0.2c-0.8,0.9-1.7,1.8-2.6,2.7c-0.7,0.8-1.5,1.6-2.2,2.3c-0.6-0.8-1.1-1.5-1.7-2.3
	c-0.7-0.9-1.4-1.8-2-2.7L11.1,6H5.3l0.6,0.8c0.7,0.9,1.3,1.8,2,2.7c0.7,0.9,1.3,1.8,2,2.7c0.3,0.5,0.7,1,1.1,1.5
	c0.3,0.4,0.6,0.8,0.9,1.2c-0.6,0.7-1.3,1.4-2,2c-0.4,0.4-0.8,0.9-1.2,1.3c-0.4,0.4-0.8,0.9-1.2,1.3c-0.3,0.3-0.5,0.6-0.8,0.9
	c-0.3,0.3-0.6,0.6-0.9,0.9L5.1,22h2.8L8,21.9c0.3-0.3,0.5-0.6,0.8-0.9c0.3-0.3,0.6-0.6,0.8-0.9l3.3-3.6l4.1,5.6h5.9L22.5,21.3z
	 M10.4,7.4l1.7,2.2c0.7,1,1.5,2,2.2,3c0.3,0.3,0.4,0.6,0.7,0.9c1.7,2.2,3.3,4.4,5,6.7l0.1,0.1h-2.2l-4.1-5.5l-0.6-0.9L8.4,7.4H10.4z
	"/>
</svg>
