<?xml version="1.0" encoding="utf-8"?>
<!-- Generator: Adobe Illustrator 27.9.0, SVG Export Plug-In . SVG Version: 6.00 Build 0)  -->
<svg version="1.1" id="Layer_1" xmlns="http://www.w3.org/2000/svg" xmlns:xlink="http://www.w3.org/1999/xlink" x="0px" y="0px"
	 viewBox="0 0 28 28" style="enable-background:new 0 0 28 28;" xml:space="preserve">
<style type="text/css">
	.st0{fill:#989898;}
</style>
<path class="st0" d="M14,0C6.3,0,0,6.3,0,14s6.3,14,14,14s14-6.3,14-14S21.7,0,14,0z M14,27.3c-7.3,0-13.3-6-13.3-13.3
	S6.7,0.7,14,0.7s13.3,6,13.3,13.3S21.3,27.3,14,27.3z"/>
<path class="st0" d="M20.1,8H7.9C6.3,8,5,9.4,5,11.2v5.7C5,18.6,6.3,20,7.9,20h12.1c1.6,0,2.9-1.4,2.9-3.2v-5.7
	C23,9.4,21.7,8,20.1,8z M11.7,16.9v-5.8l4.7,2.9L11.7,16.9z"/>
</svg>
